<?xml version="1.0" encoding="UTF-8" standalone="no"?>
<svg
   width="24"
   height="24"
   version="1.1"
   id="svg2"
   sodipodi:docname="wallet-closed.svg"
   inkscape:version="1.4.4 (dcaf3e7d9e, 2026-05-05)"
   xmlns:inkscape="http://www.inkscape.org/namespaces/inkscape"
   xmlns:sodipodi="http://sodipodi.sourceforge.net/DTD/sodipodi-0.dtd"
   xmlns="http://www.w3.org/2000/svg"
   xmlns:svg="http://www.w3.org/2000/svg">
  <sodipodi:namedview
     id="namedview2"
     pagecolor="#ffffff"
     bordercolor="#000000"
     borderopacity="0.25"
     inkscape:showpageshadow="2"
     inkscape:pageopacity="0.0"
     inkscape:pagecheckerboard="0"
     inkscape:deskcolor="#d1d1d1"
     inkscape:zoom="25.75"
     inkscape:cx="11.980583"
     inkscape:cy="12"
     inkscape:window-width="1440"
     inkscape:window-height="872"
     inkscape:window-x="0"
     inkscape:window-y="0"
     inkscape:window-maximized="1"
     inkscape:current-layer="svg2" />
  <defs
     id="defs1">
    <style
       id="current-color-scheme"
       type="text/css">.ColorScheme-Text { color:#dfdfdf; } .ColorScheme-Highlight { color:#4285f4; } .ColorScheme-NeutralText { color:#ff9800; } .ColorScheme-PositiveText { color:#4caf50; } .ColorScheme-NegativeText { color:#f44336; }</style>
  </defs>
  <path
     d="m 15.748113,9.2330098 c 0.995981,0 1.710356,0.7033169 1.710356,1.7103562 0,1.007039 -0.723284,1.710356 -1.710356,1.710356 -0.987073,0 -1.710356,-0.71883 -1.710356,-1.710356 0,-0.9915263 0.714374,-1.7103562 1.710356,-1.7103562 z m 0,-1.1402373 c -1.577519,0 -2.850594,1.2812903 -2.850594,2.8505935 0,1.569303 1.273075,2.850593 2.850594,2.850593 h 5.131068 V 8.0927725 Z m 4.560949,9.1218985 H 9.4768069 V 13.793959 H 8.3365696 c 0,-1.88523 -1.5444805,-3.420712 -3.420712,-3.420712 H 3.7756203 V 6.3824165 c 0,-0.9932537 0.7215564,-1.710356 1.710356,-1.710356 H 20.309062 c 0.9888,0.048995 1.710356,0.7171023 1.710356,1.710356 v 9.1218985 c 0,0.988941 -0.715117,1.710356 -1.710356,1.710356 z"
     style="fill:currentColor;stroke-width:1.14024"
     class="ColorScheme-Text"
     id="path1" />
  <path
     d="m 4.9158576,11.513485 c -1.2633829,0 -2.2804747,1.039041 -2.2804747,2.316107 v 1.104605 H 1.4951456 v 4.560949 h 6.841424 V 14.934197 H 7.1963323 v -1.104605 c 0,-1.277066 -1.0170917,-2.316107 -2.2804747,-2.316107 z m 0,1.140237 c 0.6316915,0 1.1402374,0.503985 1.1402374,1.140237 v 1.140238 H 3.7756203 v -1.140238 c 0,-0.636252 0.5085459,-1.140237 1.1402373,-1.140237 z"
     style="fill:currentColor;stroke-width:1.14024"
     class="ColorScheme-Text"
     id="path2" />
</svg>
